# xmcd
#
# Track frame offsets: 
#        150
#        32240
#        47330
#        67477
#        81370
#        101045
#        118305
#        137247
#        157027
#        179890
#        196220
#        219132
#        237957
#        252027
#        268005
#        282720
#        300212
#        306835
#        318905
#
# Disc length: 4556 seconds
#
# Revision: 2
# Processed by: cddbd v1.5.2PL0 Copyright (c) Steve Scherf et al.
# Submitted via: ExactAudioCopyFreeDBPlugin 1.0
#
DISCID=2011ca13
DTITLE=THE COLLECTORS - The Collectors Complete Set The Baidis Years D
DTITLE=isc-2
DYEAR=2011
DGENRE=JPop
TTITLE0=2065
TTITLE1=扉をたたいて　
TTITLE2=スーパーソニックマン
TTITLE3=おかしな顔（ファニー・フェイス）
TTITLE4=恋の3Dメガネ　
TTITLE5=あの娘は電気磁石
TTITLE6=10月のたそがれた海　
TTITLE7=チョークでしるされた手紙
TTITLE8=カーニバルがやって来る
TTITLE9=虹色サーカス団
TTITLE10=Dearトリケラトプス　
TTITLE11=アーリー・イン・ザ・モーニング
TTITLE12=S.P.Y
TTITLE13=僕の時計機械
TTITLE14=CHARY GORDONのうた　
TTITLE15=僕はコレクター　(Neo GS Strings Version)
TTITLE16=CHEWING GUM (Take-2:Previously Unreleased)
TTITLE17=恋はヒートウェーヴ('89 Free Single)
TTITLE18=明治通りをよこぎって（'90 Free Single）
EXTD=YEAR: 2001
EXTT0=
EXTT1=
EXTT2=
EXTT3=
EXTT4=
EXTT5=
EXTT6=
EXTT7=
EXTT8=
EXTT9=
EXTT10=
EXTT11=
EXTT12=
EXTT13=
EXTT14=
EXTT15=
EXTT16=
EXTT17=
EXTT18=
PLAYORDER=
